<?xml version="1.0" encoding="utf-8"?>
<!-- Generator: Adobe Illustrator 21.0.0, SVG Export Plug-In . SVG Version: 6.00 Build 0)  -->
<svg version="1.1" id="Layer_1" xmlns="http://www.w3.org/2000/svg" xmlns:xlink="http://www.w3.org/1999/xlink" x="0px" y="0px"
	 viewBox="0 0 255 318.8" style="enable-background:new 0 0 255 318.8;" xml:space="preserve">
<title>calendar</title>
<path d="M207.1,44.8h-14.2V20.4c0-3.9-3.1-7-7-7s-7,3.1-7,7v24.3H76.1V20.4c0-3.9-3.1-7-7-7s-7,3.1-7,7v24.3H47.9
	c-20.7,0-37.4,16.8-37.4,37.4v122c0,20.7,16.8,37.4,37.4,37.4h159.3c20.7,0,37.4-16.8,37.4-37.4v-122
	C244.5,61.5,227.8,44.8,207.1,44.8z M47.9,58.8h14.2v19.8c0,3.9,3.1,7,7,7s7-3.1,7-7c0,0,0,0,0,0V58.8h102.8v19.8c0,3.9,3.1,7,7,7
	s7-3.1,7-7V58.8h14.2c12.9,0,23.4,10.5,23.4,23.4v16.4H24.4V82.2C24.4,69.2,34.9,58.8,47.9,58.8z M207.1,227.6H47.9
	c-12.9,0-23.4-10.5-23.4-23.4v-91.6h206.1v91.6C230.6,217.1,220.1,227.6,207.1,227.6z"/>
</svg>
